<svg width="128" height="127" viewBox="0 0 128 127" fill="none" xmlns="http://www.w3.org/2000/svg">
<path fill-rule="evenodd" clip-rule="evenodd" d="M77.1575 126.646C106.192 120.579 128 94.8362 128 64C128 28.6538 99.3462 0 64 0C28.6538 0 0 28.6538 0 64C0 94.8362 21.8081 120.579 50.8425 126.646C31.6558 120.942 17.6552 103.081 17.6552 81.931C17.6552 56.1831 38.4045 35.3103 64 35.3103C89.5955 35.3103 110.345 56.1831 110.345 81.931C110.345 103.081 96.3442 120.942 77.1575 126.646Z" fill="#4F46E5"/>
<path fill-rule="evenodd" clip-rule="evenodd" d="M75.4957 125.783C86.4229 121.315 94.1218 110.578 94.1218 98.0425C94.1218 81.4975 80.7094 68.0851 64.1644 68.0851C47.6193 68.0851 34.2069 81.4975 34.2069 98.0425C34.2069 110.088 41.3166 120.474 51.5686 125.231C49.0052 122.346 47.4483 118.546 47.4483 114.383C47.4483 105.358 54.7641 98.0426 63.7887 98.0426C72.8133 98.0426 80.1291 105.358 80.1291 114.383C80.1291 118.817 78.363 122.839 75.4957 125.783Z" fill="#4F46E5"/>
</svg>
